<svg width="288" height="75" viewBox="0 0 288 75" xmlns="http://www.w3.org/2000/svg">
    <g fill="none" fill-rule="evenodd">
        <path d="M58.833 60.171s.023-8.493-7.622-13.127S9.354 45.168 6.042 20.68C3.615 2.73 56.367-7.426 67.952 9.982c14.014 21.06-9.119 50.19-9.119 50.19" fill="#29235C"/>
        <path d="M41.203.976s-5.755 5.608-3.823 15.023c1.934 9.416 26.468 35.983 12.112 54.957C38.968 84.865-2.852 47.814 1.239 26.664 6.186 1.079 41.203.976 41.203.976" fill="#E6007D"/>
        <path d="M82.467 35.153v-15.46h-4.314v38.343h4.314V39.628H98.94v18.408h4.314V19.694h-4.314v15.459H82.467zm44.513 11.746v-.71c0-7.07-3.212-12.663-10.05-12.663-6.93 0-10.462 5.492-10.462 12.815 0 7.017 3.992 12.51 10.554 12.51 4.176 0 7.939-2.392 9.958-6.51l-3.487-2.187c-1.561 2.848-3.259 4.628-6.425 4.628-3.946 0-6.424-3.814-6.471-7.883h16.383zm-16.153-3.457c.504-3.408 2.891-5.95 6.103-5.95 3.304 0 5.416 2.39 5.92 5.95h-12.023zm29.415 11.34c-4.36 0-6.792-4.17-6.792-8.645 0-4.424 2.524-8.543 6.792-8.543 4.451 0 6.976 3.916 6.976 8.543 0 4.678-2.478 8.645-6.976 8.645zm10.877-20.545h-4.13v3.967h-.093c-1.698-2.848-4.267-4.678-7.434-4.678-6.24 0-10.142 5.95-10.142 12.458 0 6.815 3.718 12.866 10.28 12.866 3.075 0 5.644-1.83 7.296-4.526h.093v3.712h4.13V34.237zm8.856 0h-4.13v23.799h4.13V46.34c0-3.865.55-8.442 5.002-8.442.964 0 1.79.254 2.524.966l1.882-4.17c-1.01-.711-2.203-1.17-3.396-1.17-2.753 0-4.865 1.78-5.874 4.577h-.138v-3.865zm17.347 4.273h4.038v-4.273h-4.038v-9.102h-4.13v9.102h-2.25v4.273h2.25v19.526h4.13V38.51zM200.535 23.965h1.193c4.039 0 7.342.916 7.342 6.306 0 5.493-3.35 6.407-7.434 6.407h-1.101V23.965zm0 16.528h2.661c3.855 0 8.812 1.118 8.812 6.508 0 5.441-4.176 6.764-8.17 6.764h-3.303V40.493zm-4.314 17.543h8.077c6.103 0 12.023-3.051 12.023-10.73 0-4.474-2.846-8.9-6.93-9.712v-.103c2.34-1.22 3.718-4.474 3.718-7.27 0-8.645-6.15-10.527-12.667-10.527h-4.221v38.342zm27.488-23.798h-4.13v23.798h4.13V46.34c0-3.865.55-8.441 5.002-8.441.964 0 1.79.254 2.524.966l1.882-4.17c-1.01-.712-2.203-1.17-3.396-1.17-2.754 0-4.865 1.78-5.874 4.577h-.138v-3.864zm20.054 20.544c-4.36 0-6.792-4.17-6.792-8.645 0-4.425 2.525-8.543 6.792-8.543 4.452 0 6.975 3.915 6.975 8.543 0 4.679-2.478 8.645-6.975 8.645zm10.876-20.544h-4.13v3.966h-.092c-1.698-2.848-4.267-4.679-7.434-4.679-6.241 0-10.142 5.95-10.142 12.46 0 6.813 3.717 12.865 10.28 12.865 3.074 0 5.644-1.831 7.296-4.526h.092v3.712h4.13V34.238zm4.91 23.798h4.131V34.238h-4.13v23.798zm2.066-37.884c-1.561 0-2.845 1.424-2.845 3.203 0 1.729 1.284 3.102 2.845 3.102 1.56 0 2.845-1.373 2.845-3.102 0-1.78-1.285-3.203-2.845-3.203zm11.426 14.086h-4.13v23.798h4.13V47.103c0-4.323 0-9.51 5.323-9.51 4.223 0 4.727 2.747 4.727 6.815v13.628h4.13V43.848c0-5.797-1.56-10.323-7.617-10.323-2.616 0-5.186 1.374-6.472 3.916h-.09v-3.203z" fill="#29235C"/>
        <path d="m187.468 54.796 4.629 6.268c-1.301 1.444-2.854 3.072-4.796 3.072-1.996 0-3.882-2.058-3.882-4.27 0-2.212 2.357-3.78 3.8-4.885l.249-.185zm.553-3.626-.693-.984c-.61-.86-1.248-1.72-1.248-2.886 0-1.475 1.082-2.458 2.33-2.458 1.387 0 2.442.89 2.442 2.52 0 1.688-1.443 2.64-2.497 3.562l-.334.246zm7.9 15.052h3.215l-3.742-5.13 2.55-3.318-1.663-1.905-2.44 3.134-4.349-5.837c1.746-1.412 3.796-3.163 3.796-5.774 0-3.041-2.27-4.82-4.822-4.82-2.746 0-4.822 1.871-4.822 5.065 0 1.966 1.107 3.686 2.297 5.069l-1.3 1.044c-1.998 1.599-3.658 3.197-3.658 6.146 0 3.994 2.907 6.817 6.402 6.817 2.468 0 4.684-1.565 6.262-3.622l2.273 3.13z" fill="#29235C"/>
    </g>
</svg>
