<svg width="21" height="20" viewBox="0 0 21 20" xmlns="http://www.w3.org/2000/svg">
    <path d="M2.46.177c1.486 0 2.4.976 2.43 2.259 0 1.255-.944 2.26-2.46 2.26h-.027C.945 4.696 0 3.69 0 2.436 0 1.153.973.176 2.46.176zM.258 19.555h4.345V6.479H.258v13.076zM15.271 6.173c2.86 0 5.004 1.868 5.004 5.884v7.498h-4.347v-6.996c0-1.756-.627-2.956-2.2-2.956-1.202 0-1.915.808-2.23 1.59-.115.279-.144.667-.144 1.059v7.303H7.007v-.151c.004-.757.02-4.217.025-7.381V9.3c-.002-1.412-.01-2.494-.025-2.821h4.347v1.853c.578-.89 1.608-2.16 3.917-2.16z" fill="#9D9D9C" fill-rule="evenodd"/>
</svg>
