<svg width="31" height="23" viewBox="0 0 31 23" xmlns="http://www.w3.org/2000/svg">
    <path d="m24.765 3.716-.055-.037c-1.146-1.091-2.495-1.608-4.048-1.534l-.056-.111.037-.019c1.405-.314 2.237-.647 2.496-1.017.074-.295-.018-.462-.333-.499-.702.093-1.368.24-1.941.481.74-.481 1.017-.814.85-.98-.72.018-1.515.388-2.329 1.128.296-.518.425-.814.351-.851a5.411 5.411 0 0 0-1.035.869 16.647 16.647 0 0 0-1.515 1.941l-.018.037c-.98 1.609-1.683 3.217-2.089 4.863l-.148.129-.037.019a7.82 7.82 0 0 0-2.163-1.868c-.998-.665-2.181-1.275-3.549-1.885a29.588 29.588 0 0 0-4.51-1.905c-.018 1.72.832 3.069 2.476 4.067v.019c-.572 0-1.145.093-1.7.259.112 1.59 1.239 2.68 3.364 3.272l-.018.037c-.832-.055-1.516.24-2.051.851.701 1.368 1.94 2.015 3.733 1.978-.351.185-.628.369-.813.591-.333.352-.444.758-.333 1.22.388.703 1.072 1.017 2.089.962l.056.074-.02.037c-1.755 1.811-3.88 2.625-6.358 2.459l-.037.018c-1.516-.018-3.142-.739-4.898-2.181 1.756 2.532 4.103 4.363 7.005 5.527 3.309 1.091 6.636 1.183 9.945.241h.056c3.215-.925 5.933-2.847 8.188-5.732 1.035-1.497 1.682-2.939 1.94-4.326 1.683.056 2.884-.425 3.642-1.46l-.019-.037c-.573.203-1.663.148-3.271-.185v-.185c1.775-.203 2.828-.776 3.16-1.719-1.237.481-2.457.499-3.659.037-.222-1.664-1.017-3.198-2.385-4.585" fill="#9D9D9C" fill-rule="evenodd"/>
</svg>
